<?xml version="1.0" encoding="utf-8"?>
<!-- Generator: Adobe Illustrator 27.0.0, SVG Export Plug-In . SVG Version: 6.00 Build 0)  -->
<svg version="1.1" id="Layer_1" xmlns="http://www.w3.org/2000/svg" xmlns:xlink="http://www.w3.org/1999/xlink" x="0px" y="0px"
	 viewBox="0 0 1952.2 421.9" style="enable-background:new 0 0 1952.2 421.9;" xml:space="preserve">
<path d="M267.6,242.6c0,74.1-55.6,128.7-132.1,128.7c-77,0-132.1-54.6-132.1-128.7s55.1-128.7,132.1-128.7
	C212,113.9,267.6,168.5,267.6,242.6z M186.2,242.6c0-34.6-22.9-56.6-50.7-56.6c-28.3,0-50.7,21.9-50.7,56.6s22.4,56.6,50.7,56.6
	C163.2,299.2,186.2,277.2,186.2,242.6z"/>
<path d="M467.1,317.8l-0.7-25c0-7.3,1.9-12.6,3-15.4l-1-0.1c-12.3,21.6-46.1,44.2-82.1,41.7c-52-3.7-82.9-38.1-78.2-104.2L318.8,63
	l87.1,6.1l-9.7,138.6c-1.4,19.5,4.9,34.1,23.9,35.4c26.8,1.9,45.2-17.8,47.3-47L475.9,74l87.1,6.1l-17.1,243.2L467.1,317.8z"/>
<path d="M648.7,134.8l-5.3-73l84.1-6.1l5.3,73l60.3-4.4l4.9,67.1l-60.3,4.4l6.1,83.2c1.6,21.9,16.7,27.6,31.3,26.6
	c15.1-1.1,28.8-7.5,38.2-12.6l5.1,70c-10.8,6.2-33.8,13.2-64.4,15.4c-40.9,3-79.6-12.3-91.4-60.3c-1.5-7.7-3.2-16.4-3.8-25.6
	l-6.6-90.5l-30.2,2.2l-4.9-67.1L648.7,134.8z"/>
<path d="M1104.2,207.8c13.6,17.5,27.3,39.7,35,52c1.1-7.6-2.7-44.9-2.8-63.4l-0.7-81.6l86-28.9l-18.4,265l-56,18.9l-76.6-97.7
	l-1.5,124l-55.9,18.8l-174.8-200l86-28.9c29.4,40,66.5,87.7,83.9,117.9c-0.7-14.2-3.1-113.2-2.7-144.2l49.5-16.6L1104.2,207.8z"/>
<path d="M1361.6,173.7l-7.1,243.7l-87.3-2.5l7.1-243.7L1361.6,173.7z"/>
<path d="M1432.5,81.2l-1.2-73.1l84.3-1.4l1.2,73.1l60.5-1l1.1,67.3l-60.5,1l1.4,83.4c0.4,21.9,15.1,28.5,29.7,28.3
	c15.1-0.2,29.2-5.8,38.8-10.4l1.2,70.2c-11.1,5.5-34.4,11.3-65.2,11.8c-41,0.7-78.8-16.8-87.9-65.4c-1.1-7.8-2.2-16.5-2.4-25.8
	l-1.5-90.7l-30.2,0.5l-1.1-67.3L1432.5,81.2z"/>
<path d="M1717.3,31.7l24.1,111c2.4,11,4.4,22.5,4.9,27.4c9.7-22.1,32.3-48.9,65.2-56.1c51-11.1,90.2,13.4,104.3,78.2l32.2,148.7
	l-84.8,18.4l-29.5-135.8c-4-18.6-14.8-31.2-32.9-27.3c-26.7,5.8-39.4,30-33.2,58.6l25.9,119.6l-85.3,18.5l-74.4-343.1L1717.3,31.7z"
	/>
</svg>
